# xmcd
#
# Track frame offsets:
#	150
#	10850
#	30479
#	46526
#	59294
#	72155
#	86388
#	99296
#	112566
#	127197
#	143543
#	157628
#	175384
#	197964
#	212944
#	232685
#	248882
#	260080
#	280334
#	291779
#	306035
#	316385
#
# Disc length: 4396 seconds
# Revision: 0
# Processed by: cddbd v1.5.2PL0 Copyright (c) Steve Scherf et al.
# Submitted via: dBpowerAMP V12.0
#
DISCID=23112a16
DTITLE=Various Artist - The Compliation, Vol. 1
DYEAR=2010
DGENRE=Country
TTITLE0=The Dad Horse Experience - Gates of Heave
TTITLE1=Ol' Red Shed - Another Round
TTITLE2=Black Eyed Vermillion and Handome Andy Gibson - Death Don't Have No Mercy
TTITLE3=Bob Waynz - Ain't No Diesel Trucks in Heaven
TTITLE4=Rachel Brooke - Closer Still
TTITLE5=Ted Russel Kamp - My Heart Has A Mind of Its Own
TTITLE6=Ronnie Hymes - Sea of Sin
TTITLE7=Joey Allcorn - Gone But Not Forgotten Blues
TTITLE8=Those Poor Bastards - The Minister's Doom
TTITLE9=Dave Smith and the Country Rebels - Price to Pay
TTITLE10=Last False hope - $2 Pints (Demo)
TTITLE11=Izzy and the Kesstronics - Gotta Do What I Wanna Do
TTITLE12=The Fisticuffs - The Ballad of Bill Blizzard
TTITLE13=The Boomswagglers - Run You Down
TTITLE14=Roger Alan Wade - Breakfast at Audrey's
TTITLE15=Little Lisa Dixie - Cheatin' Games
TTITLE16=357 String Band - Restless Man Blues
TTITLE17=Six Gun Britt - Hard Habit to Break
TTITLE18=Hellbound Glory - Livin' on Pabst
TTITLE19=The Goddamn Gallows - Waitin' around to Die
TTITLE20=Joe Buck Yourself - Big River (Live)
TTITLE21=Lucky Tubb and the Modern Day Troubadours - Thanks a Lot
EXTD=
EXTT0=
EXTT1=
EXTT2=
EXTT3=
EXTT4=
EXTT5=
EXTT6=
EXTT7=
EXTT8=
EXTT9=
EXTT10=
EXTT11=
EXTT12=
EXTT13=
EXTT14=
EXTT15=
EXTT16=
EXTT17=
EXTT18=
EXTT19=
EXTT20=
EXTT21=
PLAYORDER=
